# xmcd
# 
# Track frame offsets:
#     150
#     22451
#     47629
#     72343
#     96829
#     127159
#     152052
#     177611
#     210346
#     233595
#     253732
#     280781
#     307230
#     330387
# 
# Disc length: 4705
# 
# Revision: 4
# Processed by: cddbd v1.5.2PL0 Copyright (c) Steve Scherf et al.
# Submitted via: fre:ac v1.0.17
# 
DISCID=d0125f0e
DTITLE=Nu Jazz - Italia - Nu Jazz - Italia
DYEAR=2005
DGENRE=Fusion
TTITLE0=Tema De La Onda - Aldemaro Romero (Nicola Conte remix)
TTITLE1=Chok-A-Blok Avenue - Barrio Jazz Gang
TTITLE2=Broken Blues - Panaphonic
TTITLE3=Workin' - Hacienda
TTITLE4=Suite Guaracho Part 2 - Tata Vasquez (Beatfanatic Rework)
TTITLE5=Fly In The Sky - Pauline London (Barrio Jazz Gang remix)
TTITLE6=Taormina Chase - L.E.D.
TTITLE7=Black Forrest Stomp - Hipnosis (Gerardo Frisina remix)
TTITLE8=Footsteps In The Green - Barrio Jazz Gang (radio edit)
TTITLE9=Rollig Box - L.E.D./Panaphonic
TTITLE10=Pascalito's Theme - Nutropic
TTITLE11=Side Long Harlem - Roby J.C. Sound
TTITLE12=Cosmic Odissey - Spacestar (remix)
TTITLE13=Afrokraft - Panaphonic
EXTD=
EXTT0=
EXTT1=
EXTT2=
EXTT3=
EXTT4=
EXTT5=
EXTT6=
EXTT7=
EXTT8=
EXTT9=
EXTT10=
EXTT11=
EXTT12=
EXTT13=
PLAYORDER=
